<!DOCTYPE svg PUBLIC "-//W3C//DTD SVG 1.1//EN" "http://www.w3.org/Graphics/SVG/1.1/DTD/svg11.dtd">
<!-- Uploaded to: SVG Repo, www.svgrepo.com, Transformed by: SVG Repo Mixer Tools -->
<svg width="112px" height="112px" viewBox="-5.52 -5.52 35.04 35.04" fill="none" xmlns="http://www.w3.org/2000/svg">
<g id="SVGRepo_bgCarrier" stroke-width="0" transform="translate(0,0), scale(1)">
<rect x="-5.52" y="-5.52" width="35.04" height="35.04" rx="17.52" fill="#c5c8c9" strokewidth="0"/>
</g>
<g id="SVGRepo_tracerCarrier" stroke-linecap="round" stroke-linejoin="round" stroke="#CCCCCC" stroke-width="0.048"> <path d="M9 13.2222L10.8462 15L15 11M8.4 19C5.41766 19 3 16.6044 3 13.6493C3 11.2001 4.8 8.9375 7.5 8.5C8.34694 6.48637 10.3514 5 12.6893 5C15.684 5 18.1317 7.32251 18.3 10.25C19.8893 10.9449 21 12.6503 21 14.4969C21 16.9839 18.9853 19 16.5 19L8.4 19Z" stroke="#4d2deb" stroke-width="2" stroke-linecap="round" stroke-linejoin="round"/> </g>
<g id="SVGRepo_iconCarrier"> <path d="M9 13.2222L10.8462 15L15 11M8.4 19C5.41766 19 3 16.6044 3 13.6493C3 11.2001 4.8 8.9375 7.5 8.5C8.34694 6.48637 10.3514 5 12.6893 5C15.684 5 18.1317 7.32251 18.3 10.25C19.8893 10.9449 21 12.6503 21 14.4969C21 16.9839 18.9853 19 16.5 19L8.4 19Z" stroke="#4d2deb" stroke-width="2" stroke-linecap="round" stroke-linejoin="round"/> </g>
</svg>